<?xml version="1.0" standalone="no"?>
<!DOCTYPE svg PUBLIC "-//W3C//DTD SVG 20010904//EN"
 "http://www.w3.org/TR/2001/REC-SVG-20010904/DTD/svg10.dtd">
<svg version="1.0" xmlns="http://www.w3.org/2000/svg"
 width="700.000000pt" height="700.000000pt" viewBox="0 0 700.000000 700.000000"
 preserveAspectRatio="xMidYMid meet">
<metadata>
Created by potrace 1.14, written by Peter Selinger 2001-2017
</metadata>
<g transform="translate(0.000000,700.000000) scale(0.100000,-0.100000)"
fill="#000000" stroke="none">
<path d="M1235 6993 c-22 -2 -168 -4 -325 -6 -317 -4 -360 -11 -426 -69 -48
-42 -64 -77 -64 -142 0 -48 4 -60 38 -103 21 -26 99 -104 172 -173 73 -69 143
-134 154 -145 30 -28 301 -280 360 -335 27 -25 93 -86 145 -136 53 -50 129
-122 170 -160 149 -139 190 -185 197 -219 8 -45 -13 -86 -57 -109 -32 -17 -42
-18 -75 -8 -22 7 -61 33 -89 58 -55 50 -225 208 -285 264 -20 19 -86 80 -146
135 -59 55 -131 123 -160 150 -29 28 -94 89 -146 136 -104 96 -109 101 -267
249 -62 58 -129 113 -149 122 -90 42 -198 4 -241 -86 -18 -35 -24 -70 -28
-153 -2 -60 -5 -649 -6 -1310 l-2 -1202 33 -50 c54 -81 49 -80 463 -86 377 -6
400 -7 436 -19 23 -7 53 -61 53 -96 0 -30 -27 -78 -52 -91 -15 -8 -139 -13
-397 -16 -213 -2 -390 -9 -408 -14 -43 -14 -113 -81 -114 -111 -1 -13 -3 -45
-5 -73 -5 -59 -8 -2025 -4 -2325 4 -226 14 -289 68 -405 78 -166 198 -293 352
-370 66 -33 176 -70 240 -80 19 -3 610 -5 1313 -5 l1278 0 38 24 c21 14 49 42
62 63 l24 38 2 720 c1 396 -3 745 -8 775 -6 42 -16 62 -43 89 -31 31 -51 38
-206 77 -365 92 -627 237 -867 480 -367 372 -541 856 -499 1394 16 200 94 457
193 640 258 472 681 792 1194 901 130 27 173 48 207 103 l28 43 -1 760 -1 760
-27 36 c-55 73 -65 75 -317 77 -447 3 -1766 5 -1805 3z"/>
<path d="M3742 6983 c-45 -15 -111 -72 -113 -97 0 -6 -3 -20 -6 -31 -2 -11 -6
-351 -7 -755 -2 -793 -4 -759 51 -815 35 -34 67 -50 118 -59 280 -49 565 -175
789 -350 72 -56 217 -200 279 -276 156 -194 268 -409 331 -640 21 -76 30 -120
55 -265 9 -53 7 -323 -3 -405 -35 -289 -169 -613 -353 -853 -64 -83 -233 -253
-313 -314 -132 -102 -288 -191 -442 -252 -76 -30 -216 -72 -256 -77 -46 -5
-127 -27 -157 -42 -27 -13 -84 -67 -86 -81 0 -3 -3 -15 -7 -26 -3 -11 -6 -353
-7 -760 -1 -719 -1 -740 19 -775 34 -61 75 -89 142 -94 126 -11 2557 -6 2598
5 113 30 159 65 184 138 26 73 8 132 -61 202 -29 30 -111 108 -181 174 -71 66
-143 134 -161 150 -31 29 -236 221 -305 285 -414 384 -517 487 -522 520 -6 42
16 86 54 110 70 43 91 29 373 -236 17 -16 86 -81 154 -144 68 -63 143 -133
166 -155 23 -22 66 -62 96 -90 30 -27 108 -100 174 -161 66 -61 143 -130 170
-155 28 -24 57 -51 65 -60 48 -49 154 -129 173 -130 12 -1 32 -3 43 -4 32 -3
92 20 121 47 24 22 69 98 58 98 -2 0 1 12 7 27 13 31 19 5465 7 5650 -8 114
-29 167 -81 206 -41 31 -67 39 -125 39 -58 0 -101 -32 -289 -209 -85 -80 -288
-269 -304 -283 -9 -8 -75 -69 -145 -135 -143 -134 -156 -147 -305 -284 -273
-253 -266 -248 -325 -237 -48 9 -85 56 -85 109 0 40 5 46 103 142 98 95 327
310 370 348 11 9 81 75 156 145 74 70 169 159 210 198 329 308 370 349 391
395 21 48 17 98 -12 149 -29 51 -72 81 -145 101 -71 20 7 19 -1758 22 -635 2
-878 -1 -903 -10z"/>
</g>
</svg>
