<svg width="60" height="60" viewBox="0 0 60 60" fill="none" xmlns="http://www.w3.org/2000/svg">
<path fill-rule="evenodd" clip-rule="evenodd" d="M30 60C46.5684 60 60 46.5684 60 30C60 13.4316 46.5684 0 30 0C13.4316 0 0 13.4316 0 30C0 46.5684 13.4316 60 30 60ZM30.418 28.3164C28.0742 28.3164 16 21.4692 16 21.4692V20.3999C16 19.0752 17.0752 18 18.4023 18H42.4336C43.7617 18 44.8369 19.0752 44.8369 20.3999L44.8184 21.6001C44.8184 21.6001 32.874 28.3164 30.418 28.3164ZM44.8184 25.1997C44.8184 25.1997 32.9873 31.6162 30.418 31.6162C28.0742 31.6162 16.0176 25.1997 16.0195 25.1997L16 39.5996C16 40.9243 17.0762 41.9995 18.4023 41.9995H42.4336C43.7617 41.9995 44.8369 40.9243 44.8369 39.5996L44.8184 25.1997Z" fill="#000"/>
</svg>
