<svg width="60" height="60" viewBox="0 0 60 60" fill="none" xmlns="http://www.w3.org/2000/svg">
<path fill-rule="evenodd" clip-rule="evenodd" d="M30 0C13.4316 0 0 13.4316 0 30C0 46.5684 13.4316 60 30 60C46.5684 60 60 46.5684 60 30C60 13.4316 46.5684 0 30 0ZM23.4043 14.0967C25.1104 14.019 25.6562 14 30.002 14C34.3428 14 34.8867 14.019 36.5928 14.0967C38.2969 14.1748 39.46 14.4443 40.4795 14.8398C41.5332 15.2485 42.4229 15.7949 43.3135 16.6851C44.2031 17.5742 44.75 18.4673 45.1602 19.5195C45.5537 20.5366 45.8232 21.6992 45.9033 23.4028C45.9805 25.1094 46 25.6548 46 30C46 34.3457 45.9805 34.8896 45.9033 36.5962C45.8232 38.2988 45.5537 39.4619 45.1602 40.4795C44.75 41.5317 44.2031 42.4243 43.3135 43.3135C42.4238 44.2036 41.5332 44.7515 40.4805 45.1602C39.4629 45.5562 38.2988 45.8257 36.5957 45.9038C34.8887 45.9814 34.3457 46.0005 29.999 46.0005C25.6543 46.0005 25.1094 45.9814 23.4023 45.9038C21.7002 45.8257 20.5371 45.5562 19.5186 45.1602C18.4668 44.7515 17.5742 44.2036 16.6855 43.3135C15.7959 42.4243 15.249 41.5317 14.8398 40.4795C14.4443 39.4619 14.1748 38.2993 14.0967 36.5957C14.0195 34.8892 14 34.3457 14 30C14 25.6548 14.0195 25.1089 14.0967 23.4023C14.1729 21.6997 14.4434 20.5366 14.8398 19.519C15.25 18.4673 15.7959 17.5742 16.6865 16.6851C17.5762 15.7954 18.4688 15.2485 19.5205 14.8398C20.5381 14.4443 21.7012 14.1748 23.4043 14.0967Z" fill="#000"/>
<path fill-rule="evenodd" clip-rule="evenodd" d="M11.6816 8.67613e-06H13.1172C17.3887 8.67613e-06 17.8955 0.0156337 19.582 0.0922938C21.1426 0.163583 21.9893 0.424325 22.5527 0.643075C23.2998 0.933114 23.832 1.27979 24.3916 1.83985C24.9512 2.39991 25.2979 2.93311 25.5889 3.6797C25.8076 4.24317 26.0693 5.08985 26.1396 6.64991C26.2168 8.33643 26.2334 8.84327 26.2334 13.1133C26.2334 17.3833 26.2168 17.8901 26.1396 19.5767C26.0684 21.1367 25.8076 21.9834 25.5889 22.5469C25.2988 23.2935 24.9512 23.8252 24.3916 24.3848C23.832 24.9448 23.2998 25.2915 22.5527 25.5816C21.9893 25.8013 21.1426 26.0615 19.582 26.1328C17.8955 26.2095 17.3887 26.2261 13.1172 26.2261C8.84473 26.2261 8.33789 26.2095 6.65137 26.1328C5.0918 26.0606 4.24512 25.7998 3.68066 25.5811C2.93359 25.291 2.40039 24.9443 1.84082 24.3843C1.28027 23.8242 0.933594 23.2925 0.642578 22.5454C0.423828 21.9819 0.163086 21.1353 0.0917969 19.5752C0.015625 17.8887 0 17.3818 0 13.1094C0 8.83643 0.015625 8.33253 0.0917969 6.646C0.163086 5.08595 0.423828 4.23927 0.642578 3.6753C0.932617 2.92823 1.28027 2.39503 1.84082 1.83497C2.40039 1.27491 2.93359 0.928231 3.68066 0.637704C4.24414 0.417977 5.0918 0.157724 6.65137 0.0859462C8.12695 0.0195399 8.69922 -0.000479605 11.6816 8.67613e-06ZM21.6582 2.65626C20.5986 2.65626 19.7383 3.51563 19.7383 4.57569C19.7383 5.63575 20.5986 6.49561 21.6582 6.49561C22.7188 6.49561 23.5781 5.63575 23.5781 4.57569C23.5781 3.51563 22.7188 2.65577 21.6582 2.65626ZM4.90039 13.1167C4.90039 8.57911 8.5791 4.89991 13.1172 4.89991C17.6543 4.89991 21.333 8.57911 21.333 13.1167C21.333 17.6543 17.6553 21.3316 13.1172 21.3316C8.5791 21.3316 4.90039 17.6543 4.90039 13.1167Z" transform="translate(16.8838 16.8838)" fill="#000"/>
<path fill-rule="evenodd" clip-rule="evenodd" d="M5.33339 0C8.27875 0 10.6668 2.38769 10.6668 5.33339C10.6668 8.27875 8.27875 10.6668 5.33339 10.6668C2.38769 10.6668 0 8.27875 0 5.33339C0 2.38769 2.38769 0 5.33339 0V0Z" transform="translate(24.668 24.6665)" fill="#FEFEFE"/>
</svg>
