<svg xmlns="http://www.w3.org/2000/svg" width="60" height="60" fill="none" viewBox="0 0 60 60"><g fill="#000" clip-path="url(#a)"><path d="M5.418.173c-.773.161-1.107.31-1.395.622-.34.362-.473.708-.438 1.174.04.68-.017.616 3.545 3.939 6.351 5.913 6.945 6.478 7.031 6.697.11.253.07.656-.08.863-.34.455-.905.547-1.36.22-.145-.099-2.393-2.183-5.003-4.619-2.606-2.441-4.836-4.514-4.963-4.618-.79-.64-1.948-.386-2.42.524-.277.536-.272.397-.277 11.96v10.86l.178.357c.179.35.444.61.801.771.104.052 1.136.075 3.459.098 3.706.035 3.539.012 3.832.444.283.42.15 1.065-.265 1.312-.19.11-.328.115-3.48.144l-3.286.03-.329.16a1.91 1.91 0 0 0-.53.398c-.41.478-.38-.415-.38 11.568 0 10.393.005 10.837.11 11.378.137.702.293 1.186.581 1.756a6.647 6.647 0 0 0 4.928 3.645c.519.08 1.643.086 11.412.075l10.836-.017.236-.127a1.79 1.79 0 0 0 .732-.731l.127-.236.017-6.357c.018-7.002.03-6.657-.34-7.106-.294-.357-.576-.484-1.521-.668-7.182-1.428-12.317-7.825-12.115-15.092.046-1.584.247-2.758.743-4.261 1.06-3.213 3.216-6.012 6.098-7.906.75-.49 2.363-1.29 3.17-1.566.732-.254 1.7-.507 2.375-.628.76-.132 1.158-.386 1.446-.921l.127-.236v-6.45c0-6.299 0-6.454-.115-6.679-.15-.3-.502-.645-.796-.783-.236-.104-.576-.11-11.222-.104C6.49.063 5.88.07 5.417.173ZM31.902.196c-.156.069-.386.242-.507.38-.45.49-.415-.08-.415 7.054v6.391l.155.294c.242.46.807.88 1.2.886.241.006 1.187.22 1.924.438 4.294 1.267 7.914 4.56 9.626 8.747.49 1.209.876 2.706 1.014 3.944.087.766.092 2.493.006 3.27-.288 2.696-1.4 5.39-3.164 7.67-.49.628-1.862 1.999-2.49 2.488-1.931 1.491-4.196 2.534-6.37 2.925-.881.161-1.175.288-1.498.645-.46.513-.438.092-.42 7.163l.017 6.271.173.31c.092.168.27.398.397.502.461.397-.334.374 11.77.351l10.945-.017.513-.127c.53-.132.9-.305 1.112-.541.41-.45.536-1.192.294-1.727-.155-.334-.23-.41-3.734-3.674-6.006-5.597-6.629-6.19-6.721-6.38-.127-.265-.086-.686.092-.933.15-.207.519-.403.778-.403.335 0 .64.224 1.758 1.278 6.202 5.816 8.969 8.361 9.245 8.488.577.27 1.251.15 1.724-.311.294-.282.415-.53.541-1.112.098-.46.104-1.52.104-24.495 0-22.531-.006-24.04-.098-24.455-.127-.57-.26-.829-.582-1.123a1.56 1.56 0 0 0-1.74-.247c-.15.069-1.038.858-2.231 1.975-5.234 4.9-8.104 7.555-8.26 7.652-.386.237-.956.093-1.256-.31-.167-.225-.196-.714-.052-.945.133-.207.859-.898 6.26-5.925 3.342-3.115 4.04-3.789 4.155-4.03.334-.674.23-1.279-.305-1.814-.271-.265-.398-.346-.732-.45-.22-.069-.571-.15-.779-.184-.247-.034-4.08-.057-11.267-.057H32.19l-.288.138Z"/></g><defs><clipPath id="a"><path fill="#fff" d="M0 0h60v60H0z"/></clipPath></defs></svg>