<svg width="60" height="60" viewBox="0 0 60 60" fill="none" xmlns="http://www.w3.org/2000/svg">
<path d="M27.9475 0.656212C21.6098 1.11562 15.713 3.49228 10.8021 7.56569C9.88356 8.31912 7.73426 10.4753 6.99333 11.3696C1.59863 17.9115 -0.78337 26.089 0.269852 34.4318C0.998534 40.153 3.33767 45.4637 7.15253 50.021C7.75263 50.7377 9.41819 52.4283 10.1897 53.1082C18.3216 60.2505 29.5274 62.4863 39.7351 59.0009C45.2155 57.1326 50.1448 53.6166 53.7025 49.0348C57.0091 44.7777 59.1217 39.7181 59.783 34.4318C60.873 25.7827 58.2705 17.299 52.5268 10.757C51.841 9.97299 50.1632 8.31912 49.41 7.6882C44.7379 3.75568 39.2146 1.40351 33.0912 0.741968C32.0257 0.625585 29.0253 0.576581 27.9475 0.656212ZM36.955 19.3326C40.7393 19.7185 43.9479 21.8073 45.7972 25.0844C46.4463 26.236 46.9361 27.6938 47.1199 28.9924C47.1627 29.3048 47.2239 29.5621 47.2546 29.5621C47.2791 29.5621 47.3525 29.5376 47.4138 29.5008C47.475 29.4702 47.7444 29.3906 48.0077 29.3232C51.6879 28.3738 55.3252 30.7014 55.9865 34.4257C56.0906 35.0076 56.0661 36.1959 55.9375 36.8207C55.4538 39.1606 53.7392 40.9676 51.3266 41.6721L50.7571 41.8436L41.2598 41.862L31.7685 41.8742L31.5542 41.7333C31.4256 41.6476 31.3154 41.5067 31.2664 41.3597C31.2052 41.1759 31.1929 38.983 31.2052 30.8056L31.2236 20.4842L31.4134 20.3188C31.7134 20.0493 32.7911 19.6818 33.8321 19.4858C34.9649 19.2775 35.9263 19.2285 36.955 19.3326ZM30.2806 20.9069C30.6357 21.1151 30.6112 20.7844 30.7827 28.7352L30.9358 36.0857L30.7643 38.7319C30.5806 41.6292 30.5867 41.5986 30.1887 41.7946C29.7478 42.0028 29.2763 41.7088 29.209 41.182C29.1906 41.0411 29.1171 39.8099 29.0436 38.444L28.915 35.9632L29.0436 28.9189C29.1171 25.0477 29.1906 21.7216 29.209 21.5439C29.2763 20.9252 29.7907 20.619 30.2806 20.9069ZM28.0088 22.1197C28.3762 22.3096 28.3517 21.9727 28.5048 29.262L28.6456 35.9632L28.5048 38.6829C28.3639 41.5741 28.3517 41.6598 28.0455 41.8007C27.7883 41.9232 27.6904 41.9355 27.4883 41.8497C27.0658 41.6721 27.0719 41.7027 26.9311 38.7502L26.8086 36.0857L26.9188 29.409C26.9862 25.5071 27.0597 22.6342 27.0964 22.4995C27.1393 22.3402 27.2189 22.23 27.3536 22.1503C27.5924 22.0033 27.77 21.9972 28.0088 22.1197ZM21.4996 23.6817C21.5731 23.7429 21.6466 23.8471 21.665 23.9083C21.6833 23.9696 21.7813 26.6954 21.8854 29.9725L22.0691 35.9264L21.8854 38.6706C21.7813 40.1775 21.6833 41.4638 21.665 41.5251C21.6037 41.7149 21.3833 41.8742 21.169 41.8742C20.9424 41.8742 20.6607 41.6537 20.6607 41.4638C20.6546 41.4025 20.5811 40.1346 20.4893 38.64L20.3178 35.9325L20.4831 30.0338C20.5811 26.7934 20.6546 24.0798 20.6546 24.0002C20.6668 23.6327 21.2241 23.4244 21.4996 23.6817ZM23.6489 23.9022C23.7224 23.9512 23.8143 24.0492 23.8449 24.1166C23.8877 24.1901 23.9796 26.4075 24.0898 30.0705L24.2613 35.9019L24.0837 38.689C23.9245 41.1147 23.8877 41.4944 23.7898 41.6292C23.4775 42.058 22.859 41.8742 22.7794 41.329C22.761 41.2065 22.6876 39.9202 22.6141 38.4746L22.4732 35.8407L22.6263 29.997L22.7733 24.1595L22.9754 23.9818C23.1958 23.7797 23.4407 23.7552 23.6489 23.9022ZM19.2523 24.0492C19.3197 24.086 19.3993 24.1717 19.436 24.2391C19.4789 24.3187 19.5769 26.4871 19.7055 30.144L19.9075 35.9325L19.7055 38.6706C19.5952 40.1836 19.5034 41.4516 19.4973 41.4944C19.4973 41.5373 19.4299 41.6414 19.3442 41.7211C19.1482 41.9232 18.8911 41.9232 18.7012 41.7211C18.5604 41.5679 18.5481 41.5067 18.3706 38.8237L18.193 36.0857L18.3583 30.3584C18.4502 27.2099 18.5359 24.5515 18.5481 24.4474C18.6094 24.086 18.9523 23.89 19.2523 24.0492ZM25.7309 24.2391C26.1473 24.38 26.1166 24.0431 26.2881 30.2665L26.4412 35.9019L26.3065 38.4133C26.135 41.5312 26.1411 41.4883 25.9268 41.7027C25.6207 42.0028 25.1063 41.911 24.9593 41.5251C24.9226 41.4332 24.8307 40.1346 24.7573 38.6461L24.6225 35.9387L24.7573 30.3462C24.843 26.6954 24.9165 24.6924 24.9593 24.576C25.0267 24.4106 25.3267 24.1717 25.4737 24.1717C25.5104 24.1717 25.6268 24.2024 25.7309 24.2391ZM17.201 25.115C17.2867 25.2375 17.3357 26.1012 17.5194 30.5973L17.7337 35.9325L17.5133 38.7564C17.348 40.9248 17.2745 41.6169 17.201 41.7272C17.0234 41.9967 16.6499 41.9722 16.4968 41.6843C16.4601 41.6169 16.3437 40.3 16.2396 38.7502L16.0437 35.9387L16.2335 30.6034C16.4478 24.6434 16.4172 24.968 16.8642 24.968C17.054 24.968 17.1275 24.9987 17.201 25.115ZM15.0578 27.0507C15.1619 27.1671 15.1925 27.5775 15.4069 31.5467L15.6395 35.9142L15.4069 38.7686C15.1497 41.8803 15.1497 41.8742 14.7823 41.8742C14.421 41.8742 14.421 41.8865 14.1944 38.7809L13.9862 35.9203L14.1883 31.5467C14.3781 27.5958 14.4087 27.1609 14.5067 27.0507C14.6476 26.8914 14.917 26.8914 15.0578 27.0507ZM10.8143 30.0338C10.8878 30.1195 10.9674 30.7933 11.1695 33.0352L11.4328 35.9203L11.1756 38.7012C10.9062 41.5618 10.8694 41.7517 10.6184 41.7517C10.5081 41.7517 10.3122 41.6047 10.3122 41.5189C10.3122 41.4944 10.202 40.2265 10.0734 38.6951L9.8407 35.9142L10.0734 33.0046C10.2142 31.2711 10.3367 30.0644 10.3796 30.0154C10.4775 29.899 10.7041 29.9112 10.8143 30.0338ZM8.72012 30.2053C8.76298 30.2604 8.8977 31.3752 9.06915 33.1148L9.35083 35.9387L9.06915 38.6339C8.90382 40.2755 8.76298 41.3597 8.72012 41.4148C8.62215 41.5312 8.45069 41.5312 8.35272 41.4148C8.30373 41.3597 8.18739 40.3306 8.0343 38.6339L7.78937 35.9387L8.0343 33.1148C8.18739 31.3201 8.30373 30.2604 8.35272 30.2053C8.45069 30.0889 8.62215 30.0889 8.72012 30.2053ZM12.9085 30.3768C13.0065 30.4503 13.0494 30.7811 13.2575 32.9678C13.3861 34.3461 13.4902 35.6814 13.4902 35.9325C13.4902 36.735 13.031 41.6169 12.9453 41.7211C12.8412 41.8436 12.5595 41.8375 12.4431 41.7027C12.3635 41.6231 12.3023 40.9983 12.1247 38.7625L11.9043 35.9203L12.1247 33.2496C12.2778 31.3323 12.3697 30.536 12.4309 30.4319C12.5289 30.2788 12.7432 30.2543 12.9085 30.3768ZM6.63205 31.118C6.67491 31.167 6.83412 32.2634 6.99945 33.5559L7.29337 35.908L6.99945 38.2235C6.84024 39.4975 6.67491 40.5756 6.63205 40.6246C6.54632 40.7288 6.42998 40.7349 6.35037 40.6307C6.31363 40.594 6.17279 39.5159 6.02583 38.2418L5.76865 35.9264L6.02583 33.5559C6.16667 32.2512 6.31363 31.1486 6.34425 31.1057C6.42997 31.0077 6.54632 31.0138 6.63205 31.118ZM4.77054 33.0168C4.78891 33.0842 4.89913 33.7641 5.01547 34.5237L5.22979 35.9019L5.00935 37.3414C4.77054 38.8605 4.69706 39.081 4.47662 38.9217C4.39089 38.8544 4.32965 38.5481 4.17657 37.3843L3.98062 35.9264L4.17657 34.4441C4.32353 33.317 4.39701 32.9433 4.47049 32.8882C4.59908 32.7963 4.7338 32.8515 4.77054 33.0168Z" fill="#000"/>
</svg>