<svg width="60" height="60" viewBox="0 0 60 60" fill="none" xmlns="http://www.w3.org/2000/svg">
<path fill-rule="evenodd" clip-rule="evenodd" d="M30 0C13.4316 0 0 13.4316 0 30C0 46.5684 13.4316 60 30 60C46.5684 60 60 46.5684 60 30C60 13.4316 46.5684 0 30 0ZM29.1641 25.4229L29.1016 24.3848C28.9131 21.6943 30.5703 19.2363 33.1934 18.2832C34.1592 17.9443 35.7959 17.9014 36.8662 18.1982C37.2852 18.3252 38.083 18.749 38.6494 19.1309L39.6777 19.8291L40.8105 19.4697C41.4404 19.2783 42.2793 18.9609 42.6572 18.749C43.0137 18.5586 43.3291 18.4521 43.3291 18.5166C43.3291 18.876 42.5527 20.1055 41.9023 20.7832C41.0205 21.7363 41.2725 21.8213 43.0557 21.1855C44.126 20.8252 44.1475 20.8252 43.9375 21.2275C43.8115 21.4395 43.1611 22.1807 42.4688 22.8594C41.293 24.0244 41.2305 24.1514 41.2305 25.126C41.2305 26.6299 40.5166 29.7656 39.8037 31.4814C38.4814 34.7017 35.6484 38.0273 32.8154 39.7012C28.8291 42.0527 23.5195 42.646 19.0498 41.269C17.5605 40.8027 15 39.6162 15 39.4048C15 39.3408 15.7764 39.2563 16.7207 39.2349C18.6934 39.1929 20.666 38.6421 22.3447 37.6675L23.4775 36.9893L22.1768 36.5444C20.3301 35.9092 18.6719 34.4473 18.2529 33.0703C18.127 32.6255 18.1689 32.604 19.3438 32.604L20.5605 32.583L19.5322 32.0957C18.3154 31.4814 17.2031 30.4434 16.6582 29.3838C16.2588 28.6211 15.7559 26.6934 15.9023 26.5449C15.9443 26.4814 16.3848 26.6084 16.8887 26.7783C18.3369 27.3076 18.5254 27.1807 17.6855 26.291C16.1123 24.6807 15.6299 22.2871 16.3848 20.0205L16.7422 19.0029L18.127 20.3809C20.96 23.1553 24.2959 24.8076 28.1152 25.2949L29.1641 25.4229Z" fill="#000"/>
</svg>
